<svg viewBox="0 0 640 400" xmlns="http://www.w3.org/2000/svg" role="img" aria-labelledby="t050">
<title id="t050">Demand Operations console preview</title>
<defs>
<linearGradient id="g050" x1="0" y1="0" x2="1" y2="1">
<stop offset="0" stop-color="#16261C"/>
<stop offset="0.7" stop-color="#12161A"/>
</linearGradient>
</defs>
<rect width="640" height="400" rx="12" fill="url(#g050)"/>
<rect x="0.5" y="0.5" width="639" height="399" rx="11.5" fill="none" stroke="rgba(255,255,255,0.10)"/>
<!-- chrome bar -->
<rect width="640" height="34" rx="12" fill="#0A0C0E"/>
<rect y="22" width="640" height="12" fill="#0A0C0E"/>
<circle cx="20" cy="17" r="4" fill="#3A2A2A"/>
<circle cx="34" cy="17" r="4" fill="#3A3220"/>
<circle cx="48" cy="17" r="4" fill="#22301E"/>
<rect x="230" y="9" width="260" height="16" rx="8" fill="rgba(255,255,255,0.06)"/>
<text x="360" y="21" text-anchor="middle" font-family="ui-monospace,monospace" font-size="9" fill="#8B939B" letter-spacing="0.02em">thetechprinciple.com/epic/ep050</text>
<!-- sidebar -->
<rect x="0" y="34" width="120" height="366" fill="rgba(0,0,0,0.18)"/>
<text x="16" y="58" font-family="ui-sans-serif,system-ui" font-size="11" font-weight="600" fill="#F4F5F3">Demand Ops</text>
<text x="16" y="72" font-family="ui-monospace,monospace" font-size="7" fill="#8B939B" letter-spacing="0.08em">QUALITY LEAD ENGINE</text>
<g font-family="ui-sans-serif,system-ui" font-size="9" fill="#C7CBD1">
<rect x="10" y="88" width="100" height="20" rx="5" fill="rgba(200,242,80,0.12)"/>
<text x="18" y="101">Market radar</text>
<text x="18" y="126">Discovery lab</text>
<text x="18" y="151">Opportunities</text>
<text x="18" y="176">Campaigns</text>
<text x="18" y="201">Lead exchange</text>
</g>
<!-- headline -->
<text x="140" y="76" font-family="ui-sans-serif,system-ui" font-size="20" font-weight="700" fill="#F4F5F3">Hunt demand.</text>
<text x="140" y="98" font-family="ui-sans-serif,system-ui" font-size="20" font-weight="700" fill="#C8F250">Deliver quality leads.</text>
<text x="140" y="118" font-family="ui-sans-serif,system-ui" font-size="9.5" fill="#8B939B">Every target shows its real server-derived position. Nothing advances from fabricated demand.</text>
<!-- stat tiles -->
<g font-family="ui-sans-serif,system-ui">
<rect x="140" y="134" width="94" height="52" rx="8" fill="rgba(255,255,255,0.04)" stroke="rgba(255,255,255,0.08)"/>
<text x="150" y="152" font-size="7" fill="#8B939B" letter-spacing="0.06em">HUNT TARGETS</text>
<text x="150" y="174" font-size="18" font-weight="700" fill="#F4F5F3">735</text>
<rect x="242" y="134" width="94" height="52" rx="8" fill="rgba(255,255,255,0.04)" stroke="rgba(255,255,255,0.08)"/>
<text x="252" y="152" font-size="7" fill="#8B939B" letter-spacing="0.06em">OPPORTUNITIES</text>
<text x="252" y="174" font-size="18" font-weight="700" fill="#C8F250">10</text>
<rect x="344" y="134" width="94" height="52" rx="8" fill="rgba(255,255,255,0.04)" stroke="rgba(255,255,255,0.08)"/>
<text x="354" y="152" font-size="7" fill="#8B939B" letter-spacing="0.06em">LEAD-BEARING</text>
<text x="354" y="174" font-size="18" font-weight="700" fill="#F4F5F3">4</text>
<rect x="446" y="134" width="94" height="52" rx="8" fill="rgba(255,255,255,0.04)" stroke="rgba(255,255,255,0.08)"/>
<text x="456" y="152" font-size="7" fill="#8B939B" letter-spacing="0.06em">WINNERS</text>
<text x="456" y="174" font-size="18" font-weight="700" fill="#F4F5F3">2</text>
</g>
<!-- pipeline stages -->
<g font-family="ui-sans-serif,system-ui">
<rect x="140" y="202" width="90" height="46" rx="7" fill="rgba(255,255,255,0.03)" stroke="rgba(255,255,255,0.07)"/>
<text x="150" y="220" font-size="7" fill="#8B939B">01–04</text>
<text x="150" y="234" font-size="9" fill="#F4F5F3" font-weight="600">Market targets</text>
<rect x="238" y="202" width="90" height="46" rx="7" fill="rgba(255,255,255,0.03)" stroke="rgba(255,255,255,0.07)"/>
<text x="248" y="220" font-size="7" fill="#8B939B">05–10</text>
<text x="248" y="234" font-size="9" fill="#F4F5F3" font-weight="600">Demand hunting</text>
<rect x="336" y="202" width="90" height="46" rx="7" fill="rgba(255,255,255,0.03)" stroke="rgba(255,255,255,0.07)"/>
<text x="346" y="220" font-size="7" fill="#8B939B">11–15</text>
<text x="346" y="234" font-size="9" fill="#F4F5F3" font-weight="600">Opportunity gates</text>
<rect x="434" y="202" width="90" height="46" rx="7" fill="rgba(200,242,80,0.08)" stroke="rgba(200,242,80,0.3)"/>
<text x="444" y="220" font-size="7" fill="#9FB86A">16–27</text>
<text x="444" y="234" font-size="9" fill="#F4F5F3" font-weight="600">Lead acquisition</text>
</g>
<!-- list rows -->
<g font-family="ui-monospace,monospace" font-size="8" fill="#C7CBD1">
<rect x="140" y="264" width="394" height="1" fill="rgba(255,255,255,0.08)"/>
<text x="140" y="284">boiler_repair × Blackheath</text>
<text x="500" y="284" fill="#8B939B" text-anchor="end">runnable</text>
<rect x="140" y="296" width="394" height="1" fill="rgba(255,255,255,0.06)"/>
<text x="140" y="316">boiler_service × Greenwich</text>
<text x="500" y="316" fill="#8B939B" text-anchor="end">gated</text>
<rect x="140" y="328" width="394" height="1" fill="rgba(255,255,255,0.06)"/>
<text x="140" y="348">boiler_repair × Lewisham</text>
<text x="500" y="348" fill="#8B939B" text-anchor="end">gated</text>
</g>
</svg>
